<?xml version="1.0" encoding="utf-8"?>
<!-- Generator: Adobe Illustrator 26.5.0, SVG Export Plug-In . SVG Version: 6.00 Build 0)  -->
<svg version="1.1" xmlns="http://www.w3.org/2000/svg" xmlns:xlink="http://www.w3.org/1999/xlink" x="0px" y="0px"
	 viewBox="0 0 898 389" style="enable-background:new 0 0 898 389;" xml:space="preserve">
<style type="text/css">
	.st0{display:none;}
	.st1{display:inline;}
	.st2{fill:#C0C0C0;}
	.st3{fill:#191919;}
</style>
<g id="Layer_2">
</g>
<g id="Layer_1" class="st0">
	<text transform="matrix(1 0 0 1 -262 -437)" class="st1" style="font-family:'DINPro-Regular'; font-size:600px;">K</text>
	<text transform="matrix(1 0 0 1 267.002 -426)" class="st1" style="font-family:'DINPro-Regular'; font-size:600px;">W</text>
	<polygon class="st1" points="-367,223 -467,223 -467,-227 	"/>
	<g class="st1">
		<polygon class="st2" points="650.26,389 579.55,318.29 897.74,0.09 		"/>
		<polygon class="st2" points="721.46,318.29 650.74,389 332.55,70.8 		"/>
		<polygon class="st2" points="247.74,389 318.45,318.29 0.26,0.09 		"/>
		<polygon class="st2" points="176.55,318.29 247.26,389 565.46,70.81 		"/>
		
			<rect x="630.5" y="307.05" transform="matrix(0.5396 -0.8419 0.8419 0.5396 49.7221 757.0189)" class="st3" width="173" height="52"/>
		
			<rect x="155" y="246.55" transform="matrix(0.8369 -0.5473 0.5473 0.8369 -152.7618 153.3666)" class="st3" width="52" height="173"/>
	</g>
</g>
<g id="Layer_3">
	<polygon class="st2" points="897.74,0.09 650.26,389 449.5,187.76 247.74,389 0.26,0.09 263.5,263.5 423.12,161.38 332.55,70.8 
		449.5,144.6 565.46,70.81 475.5,159.5 634.5,263.5 	"/>
</g>
</svg>
